<svg xmlns="http://www.w3.org/2000/svg" fill="none" viewBox="0 0 62 59"><path stroke="#05050F" stroke-width="3" d="M30.7736 2.91021c3.6404 0 7.2438.68643 10.6038 2.01865 3.36 1.33218 6.4088 3.28318 8.9739 5.73854 2.565 2.4553 4.596 5.3665 5.9804 8.5656 1.3843 3.199 2.0958 6.6253 2.0958 10.0837s-.7115 6.8846-2.0958 10.0836c-1.3844 3.1992-3.4154 6.1104-5.9804 8.5656-2.5651 2.4554-5.6139 4.4064-8.9739 5.7386-3.36 1.3322-6.9634 2.0186-10.6038 2.0186-3.6405 0-7.2438-.6864-10.6039-2.0186-3.3599-1.3322-6.4087-3.2832-8.9738-5.7386-2.565-2.4552-4.59599-5.3664-5.98037-8.5656-1.3843-3.199-2.09584-6.6252-2.09584-10.0836s.71154-6.8847 2.09585-10.0837c1.38437-3.1991 3.41536-6.1103 5.98036-8.5656 2.5651-2.45536 5.6139-4.40636 8.9738-5.73854 3.3601-1.33222 6.9635-2.01865 10.6039-2.01865Z"/><path stroke="url(#a)" stroke-linecap="round" stroke-width="5" d="M29.9972 2.51023c6.3897-.16772 12.6406 1.73401 17.7407 5.38051 5.0983 3.64516 8.7416 8.81406 10.3672 14.65606 1.625 5.8401 1.1455 12.034-1.3667 17.5871-2.5132 5.5555-6.9222 10.1604-12.5369 13.0492-5.6163 2.8895-12.097 3.8847-18.3888 2.8151-6.2912-1.0695-12.0022-4.1365-16.21789-8.6814-4.21378-4.5429-6.68889-10.2964-7.04907-16.3258-.36016-6.0289 1.41351-12.0091 5.05333-16.9747"/><path fill="url(#b)" fill-rule="evenodd" d="M17.8114 29.5705h2.014l.9464 1.3801.4847 7.6977-3.1296-6.2515-.3155-2.8263Z" clip-rule="evenodd"/><path fill="url(#c)" fill-rule="evenodd" d="M17.8114 29.5705h2.014l.9464 1.3801.4847 7.6977-3.1296-6.2515-.3155-2.8263Z" clip-rule="evenodd"/><path fill="url(#d)" fill-rule="evenodd" d="m20.7718 30.9506 5.29-14.2613-.2176 9.0009-4.5914 12.9375-.481-7.6771Z" clip-rule="evenodd"/><path fill="url(#e)" fill-rule="evenodd" d="m20.7718 30.9506 5.29-14.2613-.2176 9.0009-4.5914 12.9375-.481-7.6771Z" clip-rule="evenodd"/><path fill="url(#f)" fill-rule="evenodd" d="M26.0618 16.6893s3.4053 8.0506 5.5875 14.2855c-.0002 6.0107-.0004 15.3914-.0004 15.3914l-5.8047-20.676.2176-9.0009Z" clip-rule="evenodd"/><path fill="url(#g)" fill-rule="evenodd" d="M26.0618 16.6893s3.4053 8.0506 5.5875 14.2855c-.0002 6.0107-.0004 15.3914-.0004 15.3914l-5.8047-20.676.2176-9.0009Z" clip-rule="evenodd"/><path fill="url(#h)" fill-rule="evenodd" d="M14.3413 29.5705h5.4841l-.9843 1.6136-.7115 1.1903h-3.7883v-2.8039Z" clip-rule="evenodd"/><path fill="url(#i)" fill-rule="evenodd" d="M14.3413 29.5705h5.4841l-.9843 1.6136-.7115 1.1903h-3.7883v-2.8039Z" clip-rule="evenodd"/><path fill="url(#j)" d="M14.7296 30.9483c0 1.5352-1.2494 2.7797-2.7906 2.7797s-2.79056-1.2445-2.79056-2.7797c0-1.5352 1.24936-2.7798 2.79056-2.7798 1.5412 0 2.7906 1.2446 2.7906 2.7798Z"/><path fill="url(#k)" d="M14.7296 30.9483c0 1.5352-1.2494 2.7797-2.7906 2.7797s-2.79056-1.2445-2.79056-2.7797c0-1.5352 1.24936-2.7798 2.79056-2.7798 1.5412 0 2.7906 1.2446 2.7906 2.7798Z"/><path fill="url(#l)" fill-rule="evenodd" d="M45.5958 29.5705h-2.1244l-.9935 1.4099-.4376 7.6679 3.1296-6.2515.4259-2.8263Z" clip-rule="evenodd"/><path fill="url(#m)" fill-rule="evenodd" d="M45.5958 29.5705h-2.1244l-.9935 1.4099-.4376 7.6679 3.1296-6.2515.4259-2.8263Z" clip-rule="evenodd"/><path fill="url(#n)" fill-rule="evenodd" d="m42.479 30.982-5.2389-15.9716.2322 8.9999 4.5718 14.6174.4349-7.6457Z" clip-rule="evenodd"/><path fill="url(#o)" fill-rule="evenodd" d="m42.479 30.982-5.2389-15.9716.2322 8.9999 4.5718 14.6174.4349-7.6457Z" clip-rule="evenodd"/><path fill="url(#p)" fill-rule="evenodd" d="M37.2401 15.0104s-3.4075 9.7299-5.5908 15.9644c-.0002 6.0107-.0004 15.3914-.0004 15.3914l5.8234-22.3559-.2322-8.9999Z" clip-rule="evenodd"/><path fill="url(#q)" fill-rule="evenodd" d="M37.2401 15.0104s-3.4075 9.7299-5.5908 15.9644c-.0002 6.0107-.0004 15.3914-.0004 15.3914l5.8234-22.3559-.2322-8.9999Z" clip-rule="evenodd"/><path fill="url(#r)" fill-rule="evenodd" d="M48.9555 29.5705h-5.4841l.9844 1.6136.7115 1.1903h3.7882v-2.8039Z" clip-rule="evenodd"/><path fill="url(#s)" fill-rule="evenodd" d="M48.9555 29.5705h-5.4841l.9844 1.6136.7115 1.1903h3.7882v-2.8039Z" clip-rule="evenodd"/><path fill="url(#t)" d="M48.5673 30.9483c0 1.5352 1.2494 2.7797 2.7906 2.7797s2.7905-1.2445 2.7905-2.7797c0-1.5352-1.2493-2.7798-2.7905-2.7798-1.5412 0-2.7906 1.2446-2.7906 2.7798Z"/><path fill="url(#u)" d="M48.5673 30.9483c0 1.5352 1.2494 2.7797 2.7906 2.7797s2.7905-1.2445 2.7905-2.7797c0-1.5352-1.2493-2.7798-2.7905-2.7798-1.5412 0-2.7906 1.2446-2.7906 2.7798Z"/><defs><linearGradient id="a" x1="-.0000032" x2="60.0159" y1="44.1877" y2="44.1341" gradientUnits="userSpaceOnUse"><stop stop-color="#DFFF01"/><stop offset="1" stop-color="#33FF01"/></linearGradient><linearGradient id="b" x1="9.88869" x2="42.1666" y1="101.198" y2="101.198" gradientUnits="userSpaceOnUse"><stop stop-color="#FAFF00"/><stop offset="1" stop-color="#3F0"/></linearGradient><linearGradient id="c" x1="9.88869" x2="42.1666" y1="101.198" y2="101.198" gradientUnits="userSpaceOnUse"><stop offset=".541667" stop-color="#FAFF00"/><stop offset="1" stop-color="#3F0"/></linearGradient><linearGradient id="d" x1="9.88869" x2="42.1666" y1="101.198" y2="101.198" gradientUnits="userSpaceOnUse"><stop stop-color="#FAFF00"/><stop offset="1" stop-color="#3F0"/></linearGradient><linearGradient id="e" x1="9.88869" x2="42.1666" y1="101.198" y2="101.198" gradientUnits="userSpaceOnUse"><stop offset=".541667" stop-color="#FAFF00"/><stop offset="1" stop-color="#3F0"/></linearGradient><linearGradient id="f" x1="9.88869" x2="42.1666" y1="101.198" y2="101.198" gradientUnits="userSpaceOnUse"><stop stop-color="#FAFF00"/><stop offset="1" stop-color="#3F0"/></linearGradient><linearGradient id="g" x1="9.88869" x2="42.1666" y1="101.198" y2="101.198" gradientUnits="userSpaceOnUse"><stop offset=".541667" stop-color="#FAFF00"/><stop offset="1" stop-color="#3F0"/></linearGradient><linearGradient id="h" x1="9.88869" x2="42.1666" y1="101.198" y2="101.198" gradientUnits="userSpaceOnUse"><stop stop-color="#FAFF00"/><stop offset="1" stop-color="#3F0"/></linearGradient><linearGradient id="i" x1="9.88869" x2="42.1666" y1="101.198" y2="101.198" gradientUnits="userSpaceOnUse"><stop offset=".541667" stop-color="#FAFF00"/><stop offset="1" stop-color="#3F0"/></linearGradient><linearGradient id="j" x1="9.88869" x2="42.1666" y1="101.198" y2="101.198" gradientUnits="userSpaceOnUse"><stop stop-color="#FAFF00"/><stop offset="1" stop-color="#3F0"/></linearGradient><linearGradient id="k" x1="9.88869" x2="42.1666" y1="101.198" y2="101.198" gradientUnits="userSpaceOnUse"><stop offset=".541667" stop-color="#FAFF00"/><stop offset="1" stop-color="#3F0"/></linearGradient><linearGradient id="l" x1="9.88869" x2="42.1666" y1="101.198" y2="101.198" gradientUnits="userSpaceOnUse"><stop stop-color="#FAFF00"/><stop offset="1" stop-color="#3F0"/></linearGradient><linearGradient id="m" x1="9.88869" x2="42.1666" y1="101.198" y2="101.198" gradientUnits="userSpaceOnUse"><stop offset=".541667" stop-color="#FAFF00"/><stop offset="1" stop-color="#3F0"/></linearGradient><linearGradient id="n" x1="9.88869" x2="42.1666" y1="101.198" y2="101.198" gradientUnits="userSpaceOnUse"><stop stop-color="#FAFF00"/><stop offset="1" stop-color="#3F0"/></linearGradient><linearGradient id="o" x1="9.88869" x2="42.1666" y1="101.198" y2="101.198" gradientUnits="userSpaceOnUse"><stop offset=".541667" stop-color="#FAFF00"/><stop offset="1" stop-color="#3F0"/></linearGradient><linearGradient id="p" x1="9.88869" x2="42.1666" y1="101.198" y2="101.198" gradientUnits="userSpaceOnUse"><stop stop-color="#FAFF00"/><stop offset="1" stop-color="#3F0"/></linearGradient><linearGradient id="q" x1="9.88869" x2="42.1666" y1="101.198" y2="101.198" gradientUnits="userSpaceOnUse"><stop offset=".541667" stop-color="#FAFF00"/><stop offset="1" stop-color="#3F0"/></linearGradient><linearGradient id="r" x1="9.88869" x2="42.1666" y1="101.198" y2="101.198" gradientUnits="userSpaceOnUse"><stop stop-color="#FAFF00"/><stop offset="1" stop-color="#3F0"/></linearGradient><linearGradient id="s" x1="9.88869" x2="42.1666" y1="101.198" y2="101.198" gradientUnits="userSpaceOnUse"><stop offset=".541667" stop-color="#FAFF00"/><stop offset="1" stop-color="#3F0"/></linearGradient><linearGradient id="t" x1="9.88869" x2="42.1666" y1="101.198" y2="101.198" gradientUnits="userSpaceOnUse"><stop stop-color="#FAFF00"/><stop offset="1" stop-color="#3F0"/></linearGradient><linearGradient id="u" x1="9.88869" x2="42.1666" y1="101.198" y2="101.198" gradientUnits="userSpaceOnUse"><stop offset=".541667" stop-color="#FAFF00"/><stop offset="1" stop-color="#3F0"/></linearGradient></defs></svg>